<svg width="50" height="50" viewBox="0 0 50 50" fill="none" xmlns="http://www.w3.org/2000/svg">
<path d="M0 0H50V50H0V0Z" fill="white" fill-opacity="0.01"/>
<path fill-rule="evenodd" clip-rule="evenodd" d="M25 42.7294C27.5324 42.7294 28.5741 44.094 29.9315 44.3973C31.2889 44.7007 32.4283 44.7849 33.5953 44.2707C35.9062 43.2524 37.315 42.0394 39.0244 40.2277C42.1923 36.8701 43.75 32.2537 43.75 26.0715C43.75 19.8892 42.0829 16.6943 39.514 14.6044C36.945 12.5146 35.4552 12.1142 32.3489 12.5146C29.2424 12.9149 27.5509 16.2526 25.0086 16.2526C22.4665 16.2526 19.368 12.9616 16.6724 12.5146C13.9768 12.0675 12.5 12.5146 10.1663 14.6044C7.83265 16.6943 6.25 19.9486 6.25 26.0715C6.25 32.1944 7.8662 36.7344 11.0341 40.0919C12.7434 41.9037 14.0937 43.2524 16.4047 44.2707C17.5717 44.7849 18.7778 44.7007 20.0879 44.3973C21.3981 44.094 22.4398 42.7294 25 42.7294Z" fill="#FF3B2F" stroke="black" stroke-width="3.39513"/>
<path d="M25.0088 16.2526C25.8264 8.19534 29.2995 4.16669 35.4282 4.16669C35.9901 5.86237 36.1352 7.50352 35.8637 9.09012C35.7346 9.84385 35.3343 10.9187 34.6625 12.3145" stroke="black" stroke-width="3.39513" stroke-linecap="round"/>
<path d="M14.822 27.0833C14.534 28.4851 14.534 29.9284 14.822 31.4131C15.1101 32.8978 15.7235 34.0435 16.6625 34.8503" stroke="white" stroke-width="3.39513" stroke-linecap="round"/>
</svg>
