<svg width="25" height="26" viewBox="0 0 25 26" fill="none" xmlns="http://www.w3.org/2000/svg">
<path d="M24.4453 10.9288L22.7452 8.95366C22.4201 8.57864 22.1576 7.8786 22.1576 7.37857V5.25344C22.1576 3.92836 21.0701 2.8408 19.745 2.8408H17.6199C17.1323 2.8408 16.4198 2.57828 16.0448 2.25326L14.0696 0.553158C13.2071 -0.184386 11.7945 -0.184386 10.9195 0.553158L8.95679 2.26576C8.58177 2.57828 7.86922 2.8408 7.38169 2.8408H5.21906C3.89398 2.8408 2.80642 3.92836 2.80642 5.25344V7.39107C2.80642 7.8786 2.5439 8.57864 2.23138 8.95366L0.543783 10.9413C-0.181261 11.8038 -0.181261 13.2039 0.543783 14.0665L2.23138 16.0541C2.5439 16.4291 2.80642 17.1292 2.80642 17.6167V19.7543C2.80642 21.0794 3.89398 22.167 5.21906 22.167H7.38169C7.86922 22.167 8.58177 22.4295 8.95679 22.7545L10.932 24.4546C11.7945 25.1922 13.2071 25.1922 14.0821 24.4546L16.0573 22.7545C16.4323 22.4295 17.1323 22.167 17.6324 22.167H19.7575C21.0826 22.167 22.1701 21.0794 22.1701 19.7543V17.6292C22.1701 17.1417 22.4326 16.4291 22.7577 16.0541L24.4578 14.079C25.1828 13.2164 25.1828 11.7913 24.4453 10.9288ZM17.6949 10.1412L11.657 16.1791C11.482 16.3541 11.2445 16.4541 10.9945 16.4541C10.7444 16.4541 10.5069 16.3541 10.3319 16.1791L7.30669 13.1539C6.94417 12.7914 6.94417 12.1914 7.30669 11.8288C7.66921 11.4663 8.26925 11.4663 8.63177 11.8288L10.9945 14.1915L16.3698 8.81615C16.7323 8.45363 17.3323 8.45363 17.6949 8.81615C18.0574 9.17868 18.0574 9.77871 17.6949 10.1412Z" fill="#0B7E7F"/>
</svg>
