<svg width="25" height="25" viewBox="0 0 25 25" fill="none" xmlns="http://www.w3.org/2000/svg">
<path d="M12.5 0C5.6125 0 0 5.6125 0 12.5C0 19.3875 5.6125 25 12.5 25C19.3875 25 25 19.3875 25 12.5C25 5.6125 19.3875 0 12.5 0ZM15.9875 13.1625L11.575 17.575C11.3875 17.7625 11.15 17.85 10.9125 17.85C10.675 17.85 10.4375 17.7625 10.25 17.575C9.8875 17.2125 9.8875 16.6125 10.25 16.25L14 12.5L10.25 8.75C9.8875 8.3875 9.8875 7.7875 10.25 7.425C10.6125 7.0625 11.2125 7.0625 11.575 7.425L15.9875 11.8375C16.3625 12.2 16.3625 12.8 15.9875 13.1625Z" fill="#292D32" fill-opacity="0.8"/>
</svg>
