<svg width="26" height="27" viewBox="0 0 26 27" fill="none" xmlns="http://www.w3.org/2000/svg">
<path opacity="0.4" d="M24.9576 26.613H0.998305C0.452565 26.613 0 26.1605 0 25.6147C0 25.069 0.452565 24.6164 0.998305 24.6164H24.9576C25.5034 24.6164 25.9559 25.069 25.9559 25.6147C25.9559 26.1605 25.5034 26.613 24.9576 26.613Z" fill="#0B7E7F"/>
<path opacity="0.4" d="M22.3231 1.96175C19.7408 -0.620534 17.2118 -0.687088 14.5629 1.96175L12.9523 3.57235C12.8192 3.70546 12.766 3.91843 12.8192 4.10478C13.8308 7.63212 16.6527 10.454 20.1801 11.4657C20.2333 11.479 20.2866 11.4923 20.3398 11.4923C20.4862 11.4923 20.6193 11.439 20.7258 11.3326L22.3231 9.72191C23.6409 8.41746 24.2798 7.15294 24.2798 5.87511C24.2931 4.55734 23.6542 3.27951 22.3231 1.96175Z" fill="#0B7E7F"/>
<path d="M17.7838 12.6764C17.3977 12.4901 17.025 12.3037 16.6656 12.0907C16.3728 11.9177 16.0933 11.7313 15.8138 11.5317C15.5875 11.3853 15.3213 11.1723 15.0684 10.9593C15.0417 10.946 14.9486 10.8662 14.8421 10.7597C14.4028 10.387 13.9103 9.90778 13.4711 9.37535C13.4311 9.34873 13.3646 9.25555 13.2714 9.13575C13.1383 8.97602 12.912 8.70981 12.7124 8.40366C12.5526 8.204 12.3663 7.91117 12.1932 7.61833C11.9803 7.25894 11.7939 6.89955 11.6076 6.52685C11.4212 6.12753 11.2748 5.74152 11.1417 5.38213L2.78258 13.7413C2.60954 13.9143 2.44981 14.2471 2.40987 14.4734L1.69109 19.5714C1.55799 20.4765 1.81089 21.3284 2.36994 21.9008C2.84913 22.3666 3.51467 22.6195 4.23345 22.6195C4.39317 22.6195 4.5529 22.6062 4.71263 22.5796L9.82396 21.8608C10.0635 21.8209 10.3963 21.6612 10.556 21.4881L18.9152 13.129C18.5425 12.9959 18.1831 12.8495 17.7838 12.6764Z" fill="#0B7E7F"/>
</svg>
