<svg width="25" height="25" viewBox="0 0 25 25" fill="none" xmlns="http://www.w3.org/2000/svg">
<path d="M24.4498 10.9058L22.7619 8.93032C22.4493 8.55522 22.1868 7.85506 22.1868 7.35494V5.2294C22.1868 3.90408 21.099 2.81631 19.7737 2.81631H17.6481C17.148 2.81631 16.4353 2.55376 16.0603 2.24117L14.0848 0.553252C13.2221 -0.184417 11.8092 -0.184417 10.9465 0.553252L8.94596 2.24117C8.57086 2.55376 7.87069 2.81631 7.37057 2.81631H5.20753C3.88221 2.81631 2.79444 3.90408 2.79444 5.2294V7.35494C2.79444 7.84256 2.54438 8.54272 2.2318 8.91781L0.543884 10.9058C-0.181295 11.781 -0.181295 13.1813 0.543884 14.0315L2.2318 16.0195C2.54438 16.3821 2.79444 17.0948 2.79444 17.5824V19.7204C2.79444 21.0458 3.88221 22.1335 5.20753 22.1335H7.38307C7.87069 22.1335 8.58337 22.3961 8.95846 22.7087L10.934 24.3966C11.7967 25.1343 13.2096 25.1343 14.0723 24.3966L16.0478 22.7087C16.4228 22.3961 17.123 22.1335 17.6231 22.1335H19.7487C21.074 22.1335 22.1618 21.0458 22.1618 19.7204V17.5949C22.1618 17.0948 22.4243 16.3946 22.7369 16.0195L24.4248 14.0441C25.1875 13.1938 25.1875 11.781 24.4498 10.9058ZM11.5591 7.64251C11.5591 7.12989 11.9843 6.70478 12.4969 6.70478C13.0095 6.70478 13.4346 7.12989 13.4346 7.64251V13.6815C13.4346 14.1941 13.0095 14.6192 12.4969 14.6192C11.9843 14.6192 11.5591 14.1941 11.5591 13.6815V7.64251ZM12.4969 18.5702C11.8092 18.5702 11.2466 18.0075 11.2466 17.3199C11.2466 16.6322 11.7967 16.0696 12.4969 16.0696C13.1845 16.0696 13.7472 16.6322 13.7472 17.3199C13.7472 18.0075 13.1971 18.5702 12.4969 18.5702Z" fill="#0B7E7F"/>
</svg>
