<svg width="26" height="26" viewBox="0 0 26 26" fill="none" xmlns="http://www.w3.org/2000/svg">
<path d="M19.467 0H6.48899C2.90707 0 0 2.89409 0 6.46303V14.2239V15.5217C0 19.0906 2.90707 21.9847 6.48899 21.9847H8.43568C8.78609 21.9847 9.25329 22.2183 9.47392 22.5038L11.4206 25.0864C12.2772 26.2285 13.6788 26.2285 14.5353 25.0864L16.482 22.5038C16.7286 22.1794 17.1179 21.9847 17.5203 21.9847H19.467C23.0489 21.9847 25.9559 19.0906 25.9559 15.5217V6.46303C25.9559 2.89409 23.0489 0 19.467 0ZM7.78678 12.978C7.06002 12.978 6.48899 12.394 6.48899 11.6802C6.48899 10.9664 7.07299 10.3824 7.78678 10.3824C8.50057 10.3824 9.08458 10.9664 9.08458 11.6802C9.08458 12.394 8.51355 12.978 7.78678 12.978ZM12.978 12.978C12.2512 12.978 11.6802 12.394 11.6802 11.6802C11.6802 10.9664 12.2642 10.3824 12.978 10.3824C13.6918 10.3824 14.2758 10.9664 14.2758 11.6802C14.2758 12.394 13.7047 12.978 12.978 12.978ZM18.1692 12.978C17.4424 12.978 16.8714 12.394 16.8714 11.6802C16.8714 10.9664 17.4554 10.3824 18.1692 10.3824C18.8829 10.3824 19.467 10.9664 19.467 11.6802C19.467 12.394 18.8959 12.978 18.1692 12.978Z" fill="white"/>
</svg>
