<svg width="26" height="25" viewBox="0 0 26 25" fill="none" xmlns="http://www.w3.org/2000/svg">
<path d="M17.9861 0.525139L6.02849 4.49779C-2.0095 7.18595 -2.0095 11.5691 6.02849 14.2441L9.57739 15.4226L10.7559 18.9715C13.4308 27.0095 17.8272 27.0095 20.5021 18.9715L24.488 7.02704C26.2625 1.66396 23.3492 -1.26255 17.9861 0.525139ZM18.4099 7.64942L13.3778 12.708C13.1792 12.9066 12.9276 12.9993 12.676 12.9993C12.4244 12.9993 12.1728 12.9066 11.9742 12.708C11.5901 12.3239 11.5901 11.6883 11.9742 11.3043L17.0062 6.24575C17.3902 5.86173 18.0258 5.86173 18.4099 6.24575C18.7939 6.62977 18.7939 7.2654 18.4099 7.64942Z" fill="#292D32"/>
</svg>
