<svg width="25" height="23" viewBox="0 0 25 23" fill="none" xmlns="http://www.w3.org/2000/svg">
<path d="M24.1279 1.74419H0.872093C0.395349 1.74419 0 1.34884 0 0.872093C0 0.395349 0.395349 0 0.872093 0H24.1279C24.6047 0 25 0.395349 25 0.872093C25 1.34884 24.6047 1.74419 24.1279 1.74419Z" fill="#0B7E7F"/>
<path d="M2.81396 0.872093V14.7907C2.81396 15.9302 3.34885 17.0116 4.26745 17.6977L10.3256 22.2326C11.6163 23.1977 13.3953 23.1977 14.686 22.2326L20.7442 17.6977C21.6628 17.0116 22.1977 15.9302 22.1977 14.7907V0.872093H2.81396ZM17.1512 13.9535H7.84885C7.3721 13.9535 6.97676 13.5581 6.97676 13.0814C6.97676 12.6047 7.3721 12.2093 7.84885 12.2093H17.1512C17.6279 12.2093 18.0232 12.6047 18.0232 13.0814C18.0232 13.5581 17.6279 13.9535 17.1512 13.9535ZM17.1512 8.13954H7.84885C7.3721 8.13954 6.97676 7.74419 6.97676 7.26744C6.97676 6.7907 7.3721 6.39535 7.84885 6.39535H17.1512C17.6279 6.39535 18.0232 6.7907 18.0232 7.26744C18.0232 7.74419 17.6279 8.13954 17.1512 8.13954Z" fill="#0B7E7F"/>
</svg>
