<svg width="25" height="24" viewBox="0 0 25 24" fill="none" xmlns="http://www.w3.org/2000/svg">
<path d="M22.6137 8.31947C20.3523 8.31947 19.4278 6.72027 20.5522 4.75875C21.2019 3.62182 20.8146 2.17254 19.6777 1.52287L17.5162 0.285984C16.5292 -0.301223 15.2549 0.0486024 14.6677 1.03561L14.5302 1.27299C13.4058 3.23451 11.5567 3.23451 10.4198 1.27299L10.2824 1.03561C9.72014 0.0486024 8.44578 -0.301223 7.45877 0.285984L5.29735 1.52287C4.16042 2.17254 3.77311 3.63431 4.42279 4.77124C5.55972 6.72027 4.63518 8.31947 2.37381 8.31947C1.07446 8.31947 0 9.38143 0 10.6933V12.8922C0 14.1915 1.06197 15.266 2.37381 15.266C4.63518 15.266 5.55972 16.8652 4.42279 18.8267C3.77311 19.9636 4.16042 21.4129 5.29735 22.0626L7.45877 23.2995C8.44578 23.8867 9.72014 23.5369 10.3073 22.5499L10.4448 22.3125C11.5692 20.351 13.4183 20.351 14.5552 22.3125L14.6927 22.5499C15.2799 23.5369 16.5542 23.8867 17.5412 23.2995L19.7027 22.0626C20.8396 21.4129 21.2269 19.9511 20.5772 18.8267C19.4403 16.8652 20.3648 15.266 22.6262 15.266C23.9255 15.266 25 14.204 25 12.8922V10.6933C24.9875 9.39393 23.9255 8.31947 22.6137 8.31947ZM12.4938 15.8532C10.2574 15.8532 8.43328 14.0291 8.43328 11.7927C8.43328 9.55635 10.2574 7.73226 12.4938 7.73226C14.7301 7.73226 16.5542 9.55635 16.5542 11.7927C16.5542 14.0291 14.7301 15.8532 12.4938 15.8532Z" fill="#0B7E7F"/>
</svg>
