<svg width="25" height="29" viewBox="0 0 25 29" fill="none" xmlns="http://www.w3.org/2000/svg">
<path d="M6.62116 14.3696C6.62116 13.7846 7.10633 13.2994 7.69139 13.2994H15.5112V1.2272C15.497 0.54225 14.9547 0 14.2698 0C5.86486 0 0 5.86486 0 14.2697C0 22.6746 5.86486 28.5395 14.2698 28.5395C14.9405 28.5395 15.497 27.9972 15.497 27.3123V15.4256H7.69139C7.09206 15.4399 6.62116 14.9547 6.62116 14.3696Z" fill="#0B7E7F"/>
<path d="M24.6912 13.6136L20.6386 9.5467C20.2247 9.13287 19.5398 9.13287 19.126 9.5467C18.7122 9.96052 18.7122 10.6455 19.126 11.0593L21.3521 13.2854H15.5015V15.4259H21.3378L19.1117 17.652C18.6979 18.0658 18.6979 18.7507 19.1117 19.1646C19.3258 19.3786 19.5969 19.4785 19.868 19.4785C20.1391 19.4785 20.4103 19.3786 20.6243 19.1646L24.6769 15.0977C25.105 14.6981 25.105 14.0275 24.6912 13.6136Z" fill="#0B7E7F"/>
</svg>
